<?xml version="1.0" encoding="utf-8"?>
<!-- Generator: Adobe Illustrator 16.2.1, SVG Export Plug-In . SVG Version: 6.00 Build 0)  -->
<!DOCTYPE svg PUBLIC "-//W3C//DTD SVG 1.1//EN" "http://www.w3.org/Graphics/SVG/1.1/DTD/svg11.dtd">
<svg version="1.1" id="Layer_1" xmlns="http://www.w3.org/2000/svg" xmlns:xlink="http://www.w3.org/1999/xlink" x="0px" y="0px"
	 width="214.97px" height="219.97px" viewBox="0 0 214.97 219.97" enable-background="new 0 0 214.97 219.97" xml:space="preserve">
<g>
	<ellipse fill="#9A7575" cx="107.49" cy="109.99" rx="107.49" ry="109.99"/>
	
		<ellipse fill="none" stroke="#FFFFFF" stroke-width="1.5" stroke-miterlimit="10" cx="107.49" cy="109.99" rx="102.49" ry="104.65"/>
	<g>
		<path fill="#FFFFFF" d="M21.15,93.08c-0.55,0-1.14,0-1.74,0.02c-0.61,0.01-1.22,0.03-1.82,0.06s-1.19,0.07-1.76,0.11
			c-0.57,0.04-1.07,0.1-1.52,0.16c0.11-0.38,0.16-0.72,0.16-1.02c0-0.23-0.05-0.57-0.16-0.99c1.41,0.04,2.78,0.08,4.13,0.11
			c1.34,0.03,2.72,0.05,4.13,0.05s2.78-0.02,4.13-0.05c1.34-0.03,2.72-0.07,4.13-0.11c-0.11,0.43-0.16,0.77-0.16,1.02
			c0,0.28,0.05,0.61,0.16,0.99c-0.45-0.06-0.96-0.12-1.52-0.16c-0.57-0.04-1.15-0.08-1.76-0.11s-1.22-0.05-1.82-0.06
			c-0.61-0.01-1.19-0.02-1.74-0.02c-0.06,2.2-0.1,4.41-0.1,6.62v5.5c0,1.41,0.03,2.79,0.08,4.16c0.05,1.37,0.11,2.71,0.18,4.03
			c-0.49-0.04-1.01-0.06-1.57-0.06c-0.56,0-1.08,0.02-1.57,0.06c0.06-1.32,0.12-2.67,0.18-4.03s0.08-2.75,0.08-4.16v-5.5
			C21.25,97.48,21.22,95.27,21.15,93.08z"/>
		<path fill="#FFFFFF" d="M30.07,102.15c0.46-1.01,1.06-1.83,1.81-2.46c0.75-0.63,1.58-1.09,2.51-1.38
			c0.93-0.29,1.85-0.43,2.77-0.43c0.94,0,1.87,0.14,2.78,0.43c0.92,0.29,1.75,0.75,2.5,1.38c0.75,0.63,1.35,1.45,1.81,2.46
			c0.46,1.01,0.69,2.25,0.69,3.7c0,1.45-0.23,2.68-0.69,3.7c-0.46,1.01-1.06,1.83-1.81,2.46c-0.75,0.63-1.58,1.07-2.5,1.33
			c-0.92,0.26-1.85,0.38-2.78,0.38c-0.92,0-1.84-0.13-2.77-0.38c-0.93-0.26-1.77-0.7-2.51-1.33c-0.75-0.63-1.35-1.45-1.81-2.46
			c-0.46-1.01-0.69-2.25-0.69-3.7C29.38,104.39,29.61,103.16,30.07,102.15z M32.44,108.44c0.16,0.83,0.43,1.57,0.82,2.22
			c0.38,0.65,0.9,1.17,1.54,1.55c0.64,0.38,1.43,0.58,2.37,0.58c0.94,0,1.73-0.19,2.37-0.58c0.64-0.38,1.15-0.9,1.54-1.55
			c0.38-0.65,0.66-1.39,0.82-2.22c0.16-0.83,0.24-1.7,0.24-2.59c0-0.9-0.08-1.76-0.24-2.59c-0.16-0.83-0.43-1.57-0.82-2.22
			c-0.38-0.65-0.9-1.17-1.54-1.55c-0.64-0.38-1.43-0.58-2.37-0.58c-0.94,0-1.73,0.19-2.37,0.58c-0.64,0.38-1.15,0.9-1.54,1.55
			c-0.38,0.65-0.66,1.39-0.82,2.22c-0.16,0.83-0.24,1.7-0.24,2.59C32.2,106.74,32.28,107.61,32.44,108.44z"/>
		<path fill="#FFFFFF" d="M48.5,101.16c-0.03-1.06-0.1-2.04-0.21-2.96c0.6,0.11,1.08,0.16,1.44,0.16c0.17,0,0.36-0.02,0.56-0.05
			c0.2-0.03,0.44-0.07,0.72-0.11c-0.06,0.85-0.1,1.71-0.1,2.56h0.06c1.13-1.92,2.71-2.88,4.75-2.88c0.53,0,1.05,0.08,1.56,0.24
			c0.51,0.16,0.97,0.38,1.39,0.66s0.77,0.61,1.07,1.01c0.3,0.39,0.5,0.82,0.61,1.26h0.06c0.51-1.02,1.21-1.81,2.1-2.35
			c0.89-0.54,1.91-0.82,3.06-0.82c0.71,0,1.36,0.1,1.96,0.29s1.12,0.49,1.56,0.9c0.44,0.41,0.78,0.93,1.03,1.57s0.37,1.41,0.37,2.3
			c0,0.36-0.01,0.76-0.03,1.18c-0.02,0.43-0.04,0.92-0.06,1.49c-0.02,0.57-0.04,1.21-0.06,1.92c-0.02,0.71-0.03,1.54-0.03,2.48
			c0,0.58,0.01,1.13,0.02,1.66s0.04,1.11,0.08,1.73c-0.23-0.04-0.47-0.06-0.7-0.06c-0.23,0-0.46,0-0.67,0c-0.23,0-0.47,0-0.7,0
			c-0.23,0-0.47,0.02-0.7,0.06c0.06-0.53,0.13-1.61,0.21-3.23s0.11-3.88,0.11-6.78c0-0.53-0.06-1.03-0.18-1.5
			c-0.12-0.47-0.31-0.87-0.56-1.22c-0.26-0.34-0.6-0.61-1.03-0.82c-0.43-0.2-0.96-0.3-1.61-0.3c-0.77,0-1.43,0.15-1.96,0.45
			c-0.54,0.3-0.95,0.65-1.25,1.06c-0.17,0.24-0.31,0.47-0.4,0.7c-0.1,0.24-0.17,0.59-0.23,1.07c-0.05,0.48-0.09,1.15-0.11,2.02
			s-0.03,2.05-0.03,3.57c0,0.92,0.02,1.75,0.05,2.51c0.03,0.76,0.07,1.58,0.11,2.48c-0.48-0.04-0.95-0.06-1.39-0.06
			s-0.91,0.02-1.39,0.06c0.09-1.17,0.16-2.37,0.2-3.58c0.04-1.22,0.06-2.41,0.06-3.58c0-1-0.01-1.79-0.02-2.35
			c-0.01-0.57-0.04-1.01-0.08-1.34s-0.1-0.6-0.17-0.82c-0.07-0.21-0.18-0.45-0.3-0.7c-0.23-0.4-0.6-0.75-1.1-1.04
			s-1.01-0.43-1.54-0.43c-1.4,0-2.43,0.46-3.09,1.38c-0.66,0.92-0.99,2.21-0.99,3.87v2.72c0,0.96,0.02,1.97,0.05,3.02
			c0.03,1.06,0.1,2.01,0.21,2.86c-0.49-0.04-0.97-0.06-1.44-0.06c-0.47,0-0.95,0.02-1.44,0.06c0.11-0.85,0.18-1.81,0.21-2.86
			c0.03-1.06,0.05-2.06,0.05-3.02v-3.33C48.55,103.22,48.53,102.21,48.5,101.16z"/>
		<path fill="#FFFFFF" d="M78.08,98.26c0.81-0.26,1.64-0.38,2.5-0.38c0.77,0,1.47,0.11,2.11,0.34s1.19,0.54,1.64,0.96
			s0.81,0.92,1.07,1.5c0.26,0.59,0.39,1.23,0.39,1.94c0,1.22-0.02,2.43-0.06,3.63c-0.04,1.21-0.06,2.48-0.06,3.82
			c0,0.26,0,0.53,0.02,0.82c0.01,0.29,0.06,0.54,0.14,0.77c0.08,0.22,0.21,0.41,0.37,0.56c0.16,0.15,0.4,0.22,0.72,0.22
			c0.11,0,0.22,0,0.34-0.02c0.12-0.01,0.23-0.05,0.34-0.11v0.7c-0.23,0.11-0.53,0.19-0.88,0.26c-0.35,0.06-0.74,0.1-1.17,0.1
			c-0.69,0-1.22-0.18-1.59-0.53c-0.37-0.35-0.58-0.8-0.65-1.36c-0.77,0.77-1.52,1.33-2.26,1.7c-0.74,0.36-1.66,0.54-2.74,0.54
			c-0.53,0-1.05-0.08-1.56-0.22c-0.51-0.15-0.96-0.39-1.35-0.74c-0.39-0.34-0.71-0.75-0.96-1.23c-0.24-0.48-0.37-1.03-0.37-1.65
			c0-1.28,0.4-2.27,1.2-2.98c0.8-0.7,1.9-1.17,3.3-1.41c1.15-0.19,2.05-0.36,2.69-0.5s1.13-0.28,1.44-0.43
			c0.31-0.15,0.49-0.33,0.56-0.53c0.06-0.2,0.1-0.46,0.1-0.78c0-0.53-0.06-1.04-0.19-1.54c-0.13-0.49-0.33-0.92-0.61-1.28
			c-0.28-0.36-0.64-0.66-1.09-0.88c-0.45-0.22-0.99-0.34-1.63-0.34c-0.85,0-1.65,0.19-2.38,0.58c-0.74,0.38-1.29,0.92-1.65,1.6
			h-0.35v-1.66C76.39,99.01,77.27,98.52,78.08,98.26z M82.07,105.75c-0.48,0.09-0.96,0.18-1.45,0.27c-0.49,0.1-0.97,0.22-1.45,0.37
			c-0.48,0.15-0.9,0.35-1.27,0.61s-0.67,0.58-0.89,0.96c-0.22,0.38-0.33,0.88-0.33,1.47c0,1,0.29,1.76,0.86,2.27
			c0.57,0.51,1.21,0.77,1.91,0.77c0.81,0,1.54-0.22,2.21-0.67c0.67-0.45,1.18-0.97,1.54-1.57l0.13-4.8
			C82.97,105.56,82.55,105.66,82.07,105.75z"/>
		<path fill="#FFFFFF" d="M91.48,111.12c0.22,0.26,0.49,0.5,0.8,0.72c0.31,0.22,0.66,0.41,1.06,0.56c0.39,0.15,0.82,0.22,1.26,0.22
			c0.4,0,0.79-0.06,1.17-0.19c0.37-0.13,0.7-0.31,0.99-0.54c0.29-0.23,0.52-0.53,0.69-0.9c0.17-0.36,0.26-0.78,0.26-1.25
			c0-0.66-0.19-1.17-0.56-1.52c-0.37-0.35-0.84-0.64-1.39-0.86c-0.56-0.22-1.16-0.42-1.82-0.59s-1.27-0.41-1.82-0.72
			c-0.56-0.31-1.02-0.72-1.39-1.23c-0.37-0.51-0.56-1.22-0.56-2.11c0-0.7,0.12-1.35,0.35-1.94c0.23-0.59,0.58-1.09,1.02-1.52
			c0.45-0.43,1-0.76,1.66-1.01c0.66-0.25,1.42-0.37,2.27-0.37c0.79,0,1.46,0.11,2,0.32s1.06,0.41,1.55,0.58
			c-0.17,0.32-0.33,0.71-0.48,1.18c-0.15,0.47-0.25,0.83-0.29,1.09h-0.38c-0.17-0.51-0.5-0.97-0.99-1.38
			c-0.49-0.41-1.1-0.61-1.82-0.61c-0.32,0-0.64,0.05-0.96,0.16c-0.32,0.11-0.61,0.27-0.86,0.48c-0.26,0.21-0.47,0.49-0.64,0.83
			c-0.17,0.34-0.26,0.75-0.26,1.22c0,0.68,0.19,1.21,0.56,1.58s0.84,0.67,1.39,0.88c0.55,0.21,1.16,0.4,1.82,0.56
			c0.66,0.16,1.27,0.38,1.82,0.67s1.02,0.69,1.39,1.2c0.37,0.51,0.56,1.22,0.56,2.11c0,0.62-0.13,1.23-0.4,1.82
			c-0.27,0.6-0.65,1.14-1.15,1.62c-0.5,0.48-1.1,0.85-1.81,1.12s-1.5,0.4-2.4,0.4c-0.98,0-1.8-0.1-2.46-0.29
			c-0.66-0.19-1.22-0.42-1.66-0.67c0.13-0.28,0.26-0.66,0.4-1.14c0.14-0.48,0.21-0.88,0.21-1.2h0.38
			C91.09,110.63,91.25,110.87,91.48,111.12z"/>
		<path fill="#FFFFFF" d="M129.67,113.4c-0.3-0.04-0.58-0.06-0.85-0.06c-0.27,0-0.55,0-0.85,0c-0.3,0-0.58,0-0.85,0
			s-0.55,0.02-0.85,0.06c-0.15-0.49-0.35-1.08-0.61-1.78s-0.54-1.42-0.85-2.18c-0.31-0.76-0.62-1.53-0.94-2.3
			c-0.32-0.78-0.62-1.52-0.9-2.22c-0.68-0.02-1.38-0.04-2.08-0.05c-0.7-0.01-1.41-0.02-2.11-0.02c-0.66,0-1.31,0.01-1.95,0.02
			c-0.64,0.01-1.29,0.03-1.95,0.05c-0.68,1.66-1.3,3.25-1.86,4.75c-0.56,1.5-0.97,2.75-1.25,3.73c-0.36-0.04-0.76-0.06-1.18-0.06
			s-0.82,0.02-1.18,0.06c1.73-3.73,3.41-7.45,5.06-11.14c1.64-3.69,3.29-7.44,4.96-11.26h0.61c0.51,1.24,1.07,2.58,1.66,4.02
			c0.6,1.44,1.21,2.9,1.82,4.37c0.62,1.47,1.24,2.93,1.86,4.38c0.62,1.45,1.2,2.8,1.74,4.05c0.54,1.25,1.03,2.36,1.47,3.34
			S129.39,112.88,129.67,113.4z M115.49,103.45c0.55,0,1.13,0.01,1.73,0.03c0.6,0.02,1.17,0.03,1.73,0.03c0.6,0,1.19,0,1.79-0.02
			s1.19-0.03,1.79-0.05l-3.55-8.13L115.49,103.45z"/>
		<path fill="#FFFFFF" d="M133.46,96.12c-0.01-0.85-0.03-1.7-0.05-2.53s-0.05-1.63-0.08-2.38c-0.03-0.76-0.07-1.4-0.11-1.94
			c0.6,0.11,1.08,0.16,1.44,0.16c0.36,0,0.84-0.05,1.44-0.16c-0.04,0.53-0.08,1.18-0.11,1.94c-0.03,0.76-0.06,1.55-0.08,2.38
			c-0.02,0.83-0.04,1.67-0.05,2.53c-0.01,0.85-0.02,1.64-0.02,2.37v5.79c0,0.73,0.01,1.51,0.02,2.37c0.01,0.85,0.03,1.7,0.05,2.53
			c0.02,0.83,0.05,1.62,0.08,2.37c0.03,0.75,0.07,1.37,0.11,1.86c-0.49-0.04-0.97-0.06-1.44-0.06c-0.47,0-0.95,0.02-1.44,0.06
			c0.04-0.49,0.08-1.11,0.11-1.86c0.03-0.75,0.06-1.54,0.08-2.37s0.04-1.67,0.05-2.53c0.01-0.85,0.02-1.64,0.02-2.37v-5.79
			C133.48,97.76,133.47,96.97,133.46,96.12z"/>
		<path fill="#FFFFFF" d="M144.48,98.26c0.81-0.26,1.64-0.38,2.5-0.38c0.77,0,1.47,0.11,2.11,0.34s1.19,0.54,1.64,0.96
			c0.46,0.42,0.81,0.92,1.07,1.5c0.26,0.59,0.39,1.23,0.39,1.94c0,1.22-0.02,2.43-0.06,3.63c-0.04,1.21-0.06,2.48-0.06,3.82
			c0,0.26,0,0.53,0.02,0.82c0.01,0.29,0.06,0.54,0.14,0.77c0.08,0.22,0.21,0.41,0.37,0.56c0.16,0.15,0.4,0.22,0.72,0.22
			c0.11,0,0.22,0,0.34-0.02s0.23-0.05,0.34-0.11v0.7c-0.24,0.11-0.53,0.19-0.88,0.26c-0.35,0.06-0.74,0.1-1.17,0.1
			c-0.69,0-1.22-0.18-1.59-0.53c-0.37-0.35-0.58-0.8-0.65-1.36c-0.76,0.77-1.52,1.33-2.26,1.7s-1.66,0.54-2.74,0.54
			c-0.53,0-1.05-0.08-1.56-0.22c-0.51-0.15-0.96-0.39-1.36-0.74c-0.39-0.34-0.71-0.75-0.96-1.23c-0.24-0.48-0.37-1.03-0.37-1.65
			c0-1.28,0.4-2.27,1.2-2.98c0.8-0.7,1.9-1.17,3.3-1.41c1.15-0.19,2.05-0.36,2.69-0.5s1.13-0.28,1.44-0.43
			c0.31-0.15,0.49-0.33,0.56-0.53c0.06-0.2,0.1-0.46,0.1-0.78c0-0.53-0.06-1.04-0.19-1.54c-0.13-0.49-0.33-0.92-0.61-1.28
			c-0.28-0.36-0.64-0.66-1.09-0.88c-0.45-0.22-0.99-0.34-1.63-0.34c-0.85,0-1.65,0.19-2.38,0.58s-1.29,0.92-1.65,1.6h-0.35v-1.66
			C142.79,99.01,143.67,98.52,144.48,98.26z M148.47,105.75c-0.48,0.09-0.96,0.18-1.45,0.27c-0.49,0.1-0.97,0.22-1.45,0.37
			c-0.48,0.15-0.9,0.35-1.27,0.61s-0.67,0.58-0.89,0.96s-0.33,0.88-0.33,1.47c0,1,0.29,1.76,0.86,2.27
			c0.57,0.51,1.21,0.77,1.91,0.77c0.81,0,1.54-0.22,2.21-0.67c0.67-0.45,1.18-0.97,1.54-1.57l0.13-4.8
			C149.37,105.56,148.95,105.66,148.47,105.75z"/>
		<path fill="#FFFFFF" d="M171,108.79c-0.37,1.02-0.88,1.9-1.54,2.64c-0.65,0.74-1.42,1.3-2.3,1.7s-1.84,0.59-2.86,0.59
			s-1.95-0.22-2.77-0.66c-0.82-0.44-1.45-0.96-1.87-1.58c-0.77,0.62-1.48,1.24-2.14,1.86h-0.58c0.04-0.51,0.08-1.13,0.11-1.86
			c0.03-0.72,0.06-1.5,0.08-2.32s0.04-1.66,0.05-2.51c0.01-0.85,0.02-1.64,0.02-2.37v-5.79c0-0.73-0.01-1.51-0.02-2.37
			c-0.01-0.85-0.03-1.7-0.05-2.53s-0.05-1.63-0.08-2.38c-0.03-0.76-0.07-1.4-0.11-1.94c0.6,0.11,1.08,0.16,1.44,0.16
			c0.23,0,0.48-0.02,0.74-0.05s0.53-0.07,0.83-0.11c-0.06,0.43-0.12,1.1-0.16,2.03c-0.04,0.93-0.08,1.96-0.1,3.1
			c-0.02,1.14-0.04,2.31-0.06,3.52c-0.02,1.21-0.04,2.3-0.06,3.28h0.06c0.72-1.15,1.53-1.99,2.4-2.53c0.87-0.53,1.89-0.8,3.04-0.8
			c1.11,0,2.07,0.21,2.88,0.62s1.48,0.97,2.02,1.65s0.93,1.48,1.2,2.38c0.27,0.91,0.4,1.86,0.4,2.86
			C171.56,106.63,171.37,107.76,171,108.79z M168.37,102.69c-0.25-0.76-0.57-1.39-0.96-1.9s-0.85-0.9-1.38-1.17
			c-0.52-0.27-1.06-0.4-1.62-0.4c-0.66,0-1.29,0.12-1.9,0.37c-0.61,0.25-1.14,0.65-1.58,1.22c-0.45,0.57-0.81,1.3-1.07,2.21
			c-0.27,0.91-0.4,2.02-0.4,3.34c0,4.29,1.56,6.43,4.67,6.43c0.66,0,1.27-0.18,1.82-0.53c0.55-0.35,1.04-0.86,1.46-1.52
			s0.74-1.45,0.98-2.37s0.35-1.94,0.35-3.07C168.74,104.32,168.62,103.45,168.37,102.69z"/>
		<path fill="#FFFFFF" d="M175.89,100.12c1.25-1.49,3.07-2.24,5.46-2.24c1.13,0,2.11,0.18,2.93,0.53c0.82,0.35,1.51,0.82,2.06,1.41
			s0.96,1.27,1.23,2.06c0.27,0.79,0.4,1.63,0.4,2.53c0,0.21-0.01,0.42-0.02,0.62c-0.01,0.2-0.03,0.41-0.05,0.62
			c-1.15-0.02-2.29-0.04-3.42-0.06c-1.13-0.02-2.27-0.03-3.42-0.03c-0.71,0-1.4,0.01-2.1,0.03c-0.7,0.02-1.39,0.04-2.1,0.06
			c-0.02,0.11-0.03,0.27-0.03,0.48v0.42c0,0.83,0.12,1.61,0.37,2.34c0.25,0.73,0.6,1.35,1.07,1.87c0.47,0.52,1.04,0.94,1.73,1.25
			c0.68,0.31,1.47,0.46,2.37,0.46c0.43,0,0.87-0.06,1.31-0.18c0.45-0.12,0.88-0.28,1.31-0.48c0.43-0.2,0.83-0.44,1.2-0.72
			c0.37-0.28,0.7-0.58,0.98-0.9l0.16,0.1l-0.19,1.57c-0.64,0.51-1.44,0.95-2.38,1.31s-1.94,0.54-2.96,0.54
			c-1.15,0-2.2-0.18-3.15-0.53c-0.95-0.35-1.77-0.86-2.46-1.54s-1.23-1.47-1.6-2.38c-0.37-0.92-0.56-1.91-0.56-2.98
			C174.02,103.67,174.64,101.61,175.89,100.12z M179.41,99.45c-0.54,0.36-0.99,0.82-1.34,1.36s-0.62,1.14-0.8,1.79
			c-0.18,0.65-0.29,1.26-0.34,1.84c0.66,0.02,1.35,0.04,2.06,0.06c0.71,0.02,1.41,0.03,2.1,0.03c0.71,0,1.42-0.01,2.14-0.03
			c0.72-0.02,1.43-0.04,2.11-0.06c0-0.58-0.05-1.18-0.14-1.82c-0.1-0.64-0.29-1.24-0.58-1.79c-0.29-0.55-0.69-1.01-1.2-1.38
			c-0.51-0.36-1.18-0.54-2.02-0.54C180.62,98.9,179.95,99.08,179.41,99.45z"/>
		<path fill="#FFFFFF" d="M191.67,111.12c0.22,0.26,0.49,0.5,0.8,0.72c0.31,0.22,0.66,0.41,1.05,0.56s0.82,0.22,1.26,0.22
			c0.41,0,0.79-0.06,1.17-0.19c0.37-0.13,0.71-0.31,0.99-0.54c0.29-0.23,0.52-0.53,0.69-0.9c0.17-0.36,0.26-0.78,0.26-1.25
			c0-0.66-0.19-1.17-0.56-1.52c-0.37-0.35-0.84-0.64-1.39-0.86c-0.55-0.22-1.16-0.42-1.82-0.59c-0.66-0.17-1.27-0.41-1.82-0.72
			c-0.55-0.31-1.02-0.72-1.39-1.23c-0.37-0.51-0.56-1.22-0.56-2.11c0-0.7,0.12-1.35,0.35-1.94s0.58-1.09,1.03-1.52
			c0.45-0.43,1-0.76,1.66-1.01c0.66-0.25,1.42-0.37,2.27-0.37c0.79,0,1.46,0.11,2,0.32c0.54,0.21,1.06,0.41,1.55,0.58
			c-0.17,0.32-0.33,0.71-0.48,1.18c-0.15,0.47-0.25,0.83-0.29,1.09h-0.38c-0.17-0.51-0.5-0.97-0.99-1.38
			c-0.49-0.41-1.1-0.61-1.82-0.61c-0.32,0-0.64,0.05-0.96,0.16c-0.32,0.11-0.61,0.27-0.86,0.48s-0.47,0.49-0.64,0.83
			c-0.17,0.34-0.26,0.75-0.26,1.22c0,0.68,0.19,1.21,0.56,1.58s0.84,0.67,1.39,0.88c0.55,0.21,1.16,0.4,1.82,0.56
			c0.66,0.16,1.27,0.38,1.82,0.67s1.02,0.69,1.39,1.2c0.37,0.51,0.56,1.22,0.56,2.11c0,0.62-0.13,1.23-0.4,1.82
			c-0.27,0.6-0.65,1.14-1.15,1.62c-0.5,0.48-1.1,0.85-1.81,1.12c-0.7,0.27-1.5,0.4-2.4,0.4c-0.98,0-1.8-0.1-2.46-0.29
			c-0.66-0.19-1.22-0.42-1.66-0.67c0.13-0.28,0.26-0.66,0.4-1.14c0.14-0.48,0.21-0.88,0.21-1.2h0.38
			C191.28,110.63,191.44,110.87,191.67,111.12z"/>
	</g>
</g>
</svg>
