<?xml version="1.0" encoding="utf-8"?>
<!-- Generator: Adobe Illustrator 16.2.1, SVG Export Plug-In . SVG Version: 6.00 Build 0)  -->
<!DOCTYPE svg PUBLIC "-//W3C//DTD SVG 1.1//EN" "http://www.w3.org/Graphics/SVG/1.1/DTD/svg11.dtd">
<svg version="1.1" id="Layer_1" xmlns="http://www.w3.org/2000/svg" xmlns:xlink="http://www.w3.org/1999/xlink" x="0px" y="0px"
	 width="214.97px" height="219.97px" viewBox="0 0 214.97 219.97" enable-background="new 0 0 214.97 219.97" xml:space="preserve">
<g>
	<ellipse fill="#9A7575" cx="107.49" cy="109.99" rx="107.49" ry="109.99"/>
	
		<ellipse fill="none" stroke="#FFFFFF" stroke-width="1.5" stroke-miterlimit="10" cx="107.49" cy="109.99" rx="102.49" ry="104.65"/>
	<g>
		<path fill="#FFFFFF" d="M67.76,71.88c-0.62,0-1.28,0.01-1.96,0.02c-0.68,0.01-1.37,0.04-2.05,0.07s-1.34,0.08-1.98,0.13
			c-0.64,0.05-1.21,0.11-1.71,0.18c0.12-0.43,0.18-0.82,0.18-1.15c0-0.26-0.06-0.64-0.18-1.12c1.58,0.05,3.13,0.09,4.64,0.13
			c1.51,0.04,3.06,0.05,4.64,0.05s3.13-0.02,4.64-0.05c1.51-0.04,3.06-0.08,4.64-0.13c-0.12,0.48-0.18,0.86-0.18,1.15
			c0,0.31,0.06,0.68,0.18,1.12c-0.5-0.07-1.07-0.13-1.71-0.18c-0.64-0.05-1.3-0.09-1.98-0.13s-1.37-0.06-2.05-0.07
			c-0.68-0.01-1.34-0.02-1.96-0.02c-0.07,2.47-0.11,4.96-0.11,7.45v6.19c0,1.58,0.03,3.14,0.09,4.68c0.06,1.54,0.13,3.05,0.2,4.54
			c-0.55-0.05-1.14-0.07-1.76-0.07s-1.21,0.02-1.76,0.07c0.07-1.49,0.14-3,0.2-4.54c0.06-1.54,0.09-3.1,0.09-4.68v-6.19
			C67.87,76.83,67.83,74.35,67.76,71.88z"/>
		<path fill="#FFFFFF" d="M77.79,82.08c0.52-1.14,1.19-2.06,2.03-2.77c0.84-0.71,1.78-1.22,2.83-1.55c1.04-0.32,2.08-0.49,3.11-0.49
			c1.06,0,2.1,0.16,3.13,0.49c1.03,0.32,1.97,0.84,2.81,1.55c0.84,0.71,1.52,1.63,2.03,2.77c0.52,1.14,0.77,2.53,0.77,4.16
			s-0.26,3.02-0.77,4.16s-1.19,2.06-2.03,2.77c-0.84,0.71-1.78,1.21-2.81,1.49c-1.03,0.29-2.08,0.43-3.13,0.43
			c-1.03,0-2.07-0.14-3.11-0.43s-1.99-0.79-2.83-1.49c-0.84-0.71-1.52-1.63-2.03-2.77c-0.52-1.14-0.77-2.53-0.77-4.16
			S77.27,83.23,77.79,82.08z M80.45,89.16c0.18,0.94,0.49,1.77,0.92,2.5c0.43,0.73,1.01,1.31,1.73,1.75
			c0.72,0.43,1.61,0.65,2.66,0.65s1.94-0.22,2.66-0.65c0.72-0.43,1.3-1.01,1.73-1.75s0.74-1.57,0.92-2.5
			c0.18-0.94,0.27-1.91,0.27-2.92s-0.09-1.98-0.27-2.92c-0.18-0.94-0.49-1.77-0.92-2.5s-1.01-1.31-1.73-1.75
			c-0.72-0.43-1.61-0.65-2.66-0.65s-1.94,0.22-2.66,0.65c-0.72,0.43-1.3,1.01-1.73,1.75c-0.43,0.73-0.74,1.57-0.92,2.5
			c-0.18,0.94-0.27,1.91-0.27,2.92S80.27,88.22,80.45,89.16z"/>
		<path fill="#FFFFFF" d="M98.52,80.97c-0.04-1.19-0.11-2.3-0.23-3.33c0.67,0.12,1.21,0.18,1.62,0.18c0.19,0,0.4-0.02,0.63-0.05
			c0.23-0.04,0.5-0.08,0.81-0.13c-0.07,0.96-0.11,1.92-0.11,2.88h0.07c1.27-2.16,3.05-3.24,5.35-3.24c0.6,0,1.18,0.09,1.76,0.27
			c0.57,0.18,1.09,0.43,1.56,0.74c0.47,0.31,0.87,0.69,1.2,1.13c0.33,0.44,0.56,0.92,0.68,1.42h0.07c0.58-1.15,1.37-2.03,2.36-2.65
			c1-0.61,2.15-0.92,3.45-0.92c0.79,0,1.53,0.11,2.2,0.32c0.67,0.22,1.26,0.55,1.75,1.01s0.88,1.04,1.16,1.76
			c0.28,0.72,0.41,1.58,0.41,2.59c0,0.41-0.01,0.85-0.04,1.33c-0.02,0.48-0.05,1.04-0.07,1.67c-0.02,0.64-0.05,1.36-0.07,2.16
			c-0.02,0.8-0.04,1.73-0.04,2.79c0,0.65,0,1.27,0.02,1.87c0.01,0.6,0.04,1.25,0.09,1.94c-0.26-0.05-0.53-0.07-0.79-0.07
			c-0.26,0-0.52,0-0.76,0c-0.26,0-0.53,0-0.79,0c-0.26,0-0.53,0.02-0.79,0.07c0.07-0.6,0.15-1.81,0.23-3.64
			c0.08-1.82,0.13-4.37,0.13-7.63c0-0.6-0.07-1.16-0.2-1.69s-0.34-0.98-0.63-1.37s-0.68-0.69-1.16-0.92
			c-0.48-0.23-1.08-0.34-1.81-0.34c-0.87,0-1.6,0.17-2.21,0.5c-0.6,0.34-1.07,0.73-1.41,1.19c-0.19,0.26-0.34,0.53-0.45,0.79
			c-0.11,0.26-0.19,0.67-0.25,1.21c-0.06,0.54-0.1,1.3-0.13,2.27c-0.02,0.97-0.04,2.31-0.04,4.01c0,1.03,0.02,1.97,0.05,2.83
			s0.08,1.78,0.13,2.79c-0.55-0.05-1.07-0.07-1.57-0.07c-0.5,0-1.02,0.02-1.57,0.07c0.11-1.32,0.18-2.66,0.22-4.03
			c0.04-1.37,0.06-2.71,0.06-4.03c0-1.13-0.01-2.01-0.02-2.65s-0.04-1.14-0.09-1.51c-0.05-0.37-0.11-0.68-0.2-0.92
			c-0.08-0.24-0.2-0.5-0.34-0.79c-0.26-0.46-0.68-0.85-1.24-1.17c-0.56-0.32-1.14-0.49-1.74-0.49c-1.58,0-2.74,0.52-3.48,1.55
			s-1.11,2.48-1.11,4.36v3.06c0,1.08,0.02,2.21,0.05,3.4c0.04,1.19,0.11,2.26,0.23,3.22c-0.55-0.05-1.09-0.07-1.62-0.07
			c-0.53,0-1.07,0.02-1.62,0.07c0.12-0.96,0.2-2.03,0.23-3.22c0.04-1.19,0.05-2.32,0.05-3.4v-3.74
			C98.58,83.29,98.56,82.16,98.52,80.97z"/>
		<path fill="#FFFFFF" d="M131.8,77.71c0.91-0.29,1.85-0.43,2.81-0.43c0.87,0,1.66,0.13,2.38,0.38c0.72,0.25,1.34,0.61,1.85,1.08
			c0.51,0.47,0.91,1.03,1.2,1.69c0.29,0.66,0.44,1.39,0.44,2.18c0,1.37-0.03,2.73-0.07,4.09c-0.05,1.36-0.07,2.79-0.07,4.3
			c0,0.29,0.01,0.59,0.02,0.92s0.07,0.61,0.16,0.86s0.23,0.46,0.41,0.63s0.45,0.25,0.81,0.25c0.12,0,0.25-0.01,0.38-0.02
			c0.13-0.01,0.26-0.05,0.38-0.13v0.79c-0.26,0.12-0.59,0.22-0.99,0.29c-0.4,0.07-0.83,0.11-1.31,0.11c-0.78,0-1.38-0.2-1.79-0.59
			c-0.41-0.4-0.66-0.91-0.73-1.53c-0.86,0.86-1.71,1.5-2.55,1.91c-0.84,0.41-1.87,0.61-3.09,0.61c-0.6,0-1.18-0.08-1.76-0.25
			s-1.08-0.44-1.52-0.83c-0.44-0.38-0.8-0.85-1.08-1.39c-0.27-0.54-0.41-1.16-0.41-1.85c0-1.44,0.45-2.56,1.35-3.35
			s2.13-1.32,3.71-1.58c1.29-0.22,2.3-0.4,3.03-0.56c0.73-0.16,1.27-0.32,1.62-0.49c0.35-0.17,0.55-0.37,0.63-0.59
			c0.07-0.23,0.11-0.52,0.11-0.88c0-0.6-0.07-1.18-0.22-1.73c-0.14-0.55-0.37-1.03-0.68-1.44s-0.72-0.74-1.22-0.99
			s-1.12-0.38-1.84-0.38c-0.96,0-1.85,0.22-2.68,0.65c-0.83,0.43-1.45,1.03-1.85,1.8h-0.4v-1.87C129.9,78.55,130.89,78,131.8,77.71z
			 M136.29,86.13c-0.54,0.1-1.08,0.2-1.63,0.31c-0.55,0.11-1.09,0.25-1.63,0.41c-0.54,0.17-1.01,0.4-1.43,0.68s-0.75,0.65-1,1.08
			c-0.25,0.43-0.38,0.98-0.38,1.66c0,1.13,0.32,1.98,0.97,2.56c0.64,0.58,1.36,0.86,2.15,0.86c0.91,0,1.74-0.25,2.49-0.76
			c0.75-0.5,1.33-1.09,1.74-1.76l0.14-5.4C137.3,85.92,136.83,86.04,136.29,86.13z"/>
		<path fill="#FFFFFF" d="M146.87,92.18c0.25,0.29,0.55,0.56,0.9,0.81s0.74,0.46,1.19,0.63s0.92,0.25,1.42,0.25
			c0.46,0,0.89-0.07,1.31-0.22c0.42-0.14,0.79-0.35,1.12-0.61c0.32-0.26,0.58-0.6,0.77-1.01c0.19-0.41,0.29-0.88,0.29-1.4
			c0-0.74-0.21-1.31-0.63-1.71c-0.42-0.4-0.94-0.72-1.57-0.97c-0.62-0.25-1.31-0.47-2.05-0.67c-0.74-0.19-1.43-0.46-2.05-0.81
			c-0.62-0.35-1.15-0.81-1.57-1.39s-0.63-1.37-0.63-2.38c0-0.79,0.13-1.52,0.4-2.18s0.65-1.23,1.15-1.71
			c0.5-0.48,1.13-0.86,1.87-1.13c0.74-0.28,1.6-0.41,2.56-0.41c0.89,0,1.64,0.12,2.25,0.36c0.61,0.24,1.19,0.46,1.75,0.65
			c-0.19,0.36-0.37,0.8-0.54,1.33c-0.17,0.53-0.28,0.94-0.32,1.22h-0.43c-0.19-0.58-0.56-1.09-1.12-1.55
			c-0.55-0.46-1.24-0.68-2.05-0.68c-0.36,0-0.72,0.06-1.08,0.18s-0.68,0.3-0.97,0.54c-0.29,0.24-0.53,0.55-0.72,0.94
			c-0.19,0.38-0.29,0.84-0.29,1.37c0,0.77,0.21,1.36,0.63,1.78c0.42,0.42,0.94,0.75,1.57,0.99s1.31,0.45,2.05,0.63
			c0.74,0.18,1.43,0.43,2.05,0.76s1.15,0.77,1.57,1.35c0.42,0.58,0.63,1.37,0.63,2.38c0,0.7-0.15,1.38-0.45,2.05
			c-0.3,0.67-0.73,1.28-1.29,1.82c-0.56,0.54-1.24,0.96-2.03,1.26s-1.69,0.45-2.7,0.45c-1.1,0-2.03-0.11-2.77-0.32
			c-0.74-0.22-1.37-0.47-1.87-0.76c0.14-0.31,0.29-0.74,0.45-1.28c0.16-0.54,0.23-0.99,0.23-1.35h0.43
			C146.43,91.63,146.62,91.89,146.87,92.18z"/>
		<path fill="#FFFFFF" d="M82.73,149.94c-0.34-0.05-0.65-0.07-0.95-0.07c-0.3,0-0.62,0-0.95,0c-0.34,0-0.65,0-0.95,0
			c-0.3,0-0.62,0.02-0.95,0.07c-0.17-0.55-0.4-1.22-0.68-2c-0.29-0.78-0.61-1.6-0.95-2.45c-0.35-0.85-0.7-1.72-1.06-2.59
			c-0.36-0.88-0.7-1.71-1.01-2.5c-0.77-0.02-1.55-0.04-2.34-0.05s-1.58-0.02-2.38-0.02c-0.74,0-1.48,0.01-2.2,0.02
			c-0.72,0.01-1.45,0.03-2.2,0.05c-0.77,1.87-1.46,3.65-2.09,5.35c-0.62,1.69-1.09,3.09-1.4,4.19c-0.41-0.05-0.85-0.07-1.33-0.07
			s-0.92,0.02-1.33,0.07c1.94-4.2,3.84-8.38,5.69-12.53s3.71-8.38,5.58-12.67h0.68c0.58,1.39,1.2,2.9,1.87,4.52
			c0.67,1.62,1.36,3.26,2.05,4.91c0.7,1.66,1.39,3.3,2.09,4.93c0.7,1.63,1.35,3.15,1.96,4.55c0.61,1.4,1.16,2.66,1.66,3.76
			C82.02,148.52,82.42,149.36,82.73,149.94z M66.79,138.74c0.62,0,1.27,0.01,1.94,0.04c0.67,0.03,1.32,0.04,1.94,0.04
			c0.67,0,1.34-0.01,2.02-0.02c0.67-0.01,1.34-0.03,2.02-0.05l-4-9.14L66.79,138.74z"/>
		<path fill="#FFFFFF" d="M87,130.5c-0.01-0.96-0.03-1.91-0.05-2.84c-0.02-0.94-0.05-1.83-0.09-2.68c-0.04-0.85-0.08-1.58-0.13-2.18
			c0.67,0.12,1.21,0.18,1.62,0.18c0.41,0,0.95-0.06,1.62-0.18c-0.05,0.6-0.09,1.33-0.13,2.18c-0.04,0.85-0.07,1.74-0.09,2.68
			c-0.02,0.94-0.04,1.88-0.05,2.84c-0.01,0.96-0.02,1.85-0.02,2.66v6.52c0,0.82,0.01,1.71,0.02,2.66c0.01,0.96,0.03,1.91,0.05,2.84
			c0.02,0.94,0.05,1.82,0.09,2.66s0.08,1.54,0.13,2.09c-0.55-0.05-1.09-0.07-1.62-0.07c-0.53,0-1.07,0.02-1.62,0.07
			c0.05-0.55,0.09-1.25,0.13-2.09c0.04-0.84,0.07-1.73,0.09-2.66c0.02-0.94,0.04-1.88,0.05-2.84c0.01-0.96,0.02-1.85,0.02-2.66
			v-6.52C87.02,132.35,87.01,131.46,87,130.5z"/>
		<path fill="#FFFFFF" d="M99.4,132.91c0.91-0.29,1.85-0.43,2.81-0.43c0.86,0,1.66,0.12,2.38,0.38c0.72,0.25,1.34,0.61,1.85,1.08
			s0.91,1.03,1.2,1.69c0.29,0.66,0.44,1.39,0.44,2.18c0,1.37-0.02,2.73-0.07,4.09c-0.05,1.36-0.07,2.79-0.07,4.3
			c0,0.29,0.01,0.59,0.02,0.92c0.01,0.32,0.07,0.61,0.16,0.87c0.1,0.25,0.23,0.46,0.41,0.63s0.45,0.25,0.81,0.25
			c0.12,0,0.25-0.01,0.38-0.02s0.26-0.05,0.38-0.13v0.79c-0.27,0.12-0.59,0.22-0.99,0.29c-0.4,0.07-0.83,0.11-1.31,0.11
			c-0.78,0-1.38-0.2-1.79-0.59c-0.41-0.4-0.66-0.91-0.73-1.53c-0.86,0.87-1.71,1.5-2.55,1.91c-0.84,0.41-1.87,0.61-3.08,0.61
			c-0.6,0-1.18-0.08-1.76-0.25s-1.08-0.44-1.52-0.83c-0.44-0.38-0.8-0.85-1.08-1.38c-0.27-0.54-0.41-1.16-0.41-1.85
			c0-1.44,0.45-2.56,1.35-3.35c0.9-0.79,2.13-1.32,3.71-1.58c1.29-0.21,2.3-0.4,3.03-0.56c0.73-0.16,1.27-0.32,1.61-0.49
			s0.56-0.37,0.63-0.59c0.07-0.23,0.11-0.52,0.11-0.88c0-0.6-0.07-1.18-0.22-1.73c-0.14-0.55-0.37-1.03-0.68-1.44
			s-0.72-0.74-1.22-0.99s-1.12-0.38-1.84-0.38c-0.96,0-1.85,0.21-2.68,0.65c-0.83,0.43-1.45,1.03-1.85,1.8h-0.4v-1.87
			C97.49,133.75,98.49,133.2,99.4,132.91z M103.89,141.33c-0.54,0.1-1.08,0.2-1.63,0.31c-0.55,0.11-1.09,0.25-1.63,0.41
			c-0.54,0.17-1.02,0.39-1.43,0.68c-0.42,0.29-0.75,0.65-1,1.08c-0.25,0.43-0.38,0.98-0.38,1.66c0,1.13,0.32,1.98,0.97,2.55
			c0.64,0.58,1.36,0.87,2.15,0.87c0.91,0,1.74-0.25,2.49-0.76c0.75-0.51,1.33-1.09,1.74-1.77l0.14-5.4
			C104.9,141.12,104.43,141.24,103.89,141.33z"/>
		<path fill="#FFFFFF" d="M129.23,144.75c-0.42,1.15-1,2.14-1.73,2.97c-0.73,0.83-1.6,1.46-2.59,1.91c-1,0.45-2.07,0.67-3.22,0.67
			c-1.15,0-2.19-0.25-3.12-0.74c-0.92-0.49-1.62-1.09-2.11-1.78c-0.86,0.7-1.67,1.39-2.41,2.09h-0.65c0.05-0.58,0.09-1.27,0.13-2.09
			c0.04-0.81,0.07-1.69,0.09-2.61c0.02-0.92,0.04-1.87,0.05-2.83c0.01-0.96,0.02-1.85,0.02-2.66v-6.52c0-0.82-0.01-1.71-0.02-2.66
			s-0.03-1.91-0.05-2.84c-0.02-0.94-0.05-1.83-0.09-2.68c-0.04-0.85-0.08-1.58-0.13-2.18c0.67,0.12,1.21,0.18,1.62,0.18
			c0.26,0,0.54-0.02,0.83-0.05c0.29-0.04,0.6-0.08,0.94-0.13c-0.07,0.48-0.13,1.24-0.18,2.29c-0.05,1.04-0.08,2.21-0.11,3.49
			c-0.02,1.28-0.05,2.6-0.07,3.96c-0.03,1.36-0.05,2.59-0.07,3.69h0.07c0.81-1.3,1.71-2.24,2.7-2.85c0.98-0.6,2.12-0.9,3.42-0.9
			c1.25,0,2.33,0.23,3.24,0.7s1.67,1.09,2.27,1.85c0.6,0.77,1.05,1.66,1.35,2.68c0.3,1.02,0.45,2.1,0.45,3.22
			C129.86,142.33,129.65,143.6,129.23,144.75z M126.28,137.9c-0.28-0.85-0.64-1.57-1.08-2.14c-0.45-0.58-0.96-1.01-1.55-1.31
			c-0.59-0.3-1.19-0.45-1.82-0.45c-0.74,0-1.46,0.14-2.14,0.41c-0.68,0.28-1.28,0.73-1.78,1.37c-0.5,0.64-0.91,1.46-1.21,2.48
			c-0.3,1.02-0.45,2.27-0.45,3.76c0,4.82,1.75,7.24,5.26,7.24c0.74,0,1.43-0.2,2.05-0.59s1.17-0.97,1.64-1.71
			c0.47-0.74,0.83-1.63,1.1-2.66c0.26-1.03,0.4-2.18,0.4-3.46C126.69,139.73,126.55,138.75,126.28,137.9z"/>
		<path fill="#FFFFFF" d="M134.74,135c1.4-1.68,3.45-2.52,6.14-2.52c1.27,0,2.37,0.2,3.29,0.59c0.92,0.39,1.7,0.92,2.32,1.58
			s1.08,1.43,1.39,2.32c0.3,0.89,0.45,1.84,0.45,2.84c0,0.24-0.01,0.47-0.02,0.7c-0.01,0.23-0.03,0.46-0.05,0.7
			c-1.3-0.03-2.58-0.05-3.85-0.07c-1.27-0.02-2.56-0.04-3.85-0.04c-0.79,0-1.58,0.01-2.36,0.04c-0.78,0.02-1.57,0.05-2.36,0.07
			c-0.02,0.12-0.04,0.3-0.04,0.54v0.47c0,0.94,0.14,1.81,0.41,2.63c0.28,0.82,0.68,1.52,1.21,2.11c0.53,0.59,1.18,1.06,1.94,1.4
			c0.77,0.35,1.66,0.52,2.66,0.52c0.48,0,0.97-0.07,1.48-0.2c0.5-0.13,1-0.31,1.48-0.54s0.93-0.5,1.35-0.81
			c0.42-0.31,0.79-0.65,1.1-1.01l0.18,0.11l-0.22,1.76c-0.72,0.58-1.61,1.07-2.68,1.48s-2.18,0.61-3.33,0.61
			c-1.3,0-2.48-0.2-3.55-0.59c-1.07-0.39-1.99-0.97-2.77-1.73c-0.78-0.76-1.38-1.65-1.8-2.68c-0.42-1.03-0.63-2.15-0.63-3.35
			C132.63,139,133.33,136.68,134.74,135z M138.7,134.24c-0.61,0.41-1.12,0.92-1.51,1.53c-0.4,0.61-0.7,1.29-0.9,2.02
			c-0.2,0.73-0.33,1.42-0.38,2.07c0.74,0.03,1.52,0.05,2.32,0.07c0.8,0.02,1.59,0.04,2.36,0.04c0.79,0,1.6-0.01,2.41-0.04
			s1.61-0.05,2.38-0.07c0-0.65-0.05-1.33-0.16-2.05c-0.11-0.72-0.32-1.39-0.65-2.02c-0.32-0.62-0.77-1.14-1.35-1.55
			s-1.33-0.61-2.27-0.61C140.06,133.63,139.31,133.83,138.7,134.24z"/>
		<path fill="#FFFFFF" d="M152.48,147.38c0.25,0.29,0.55,0.56,0.9,0.81s0.74,0.46,1.19,0.63s0.92,0.25,1.42,0.25
			c0.46,0,0.89-0.07,1.31-0.22s0.79-0.35,1.12-0.61c0.32-0.26,0.58-0.6,0.77-1.01c0.19-0.41,0.29-0.88,0.29-1.4
			c0-0.74-0.21-1.31-0.63-1.71c-0.42-0.39-0.94-0.72-1.57-0.97c-0.62-0.25-1.31-0.47-2.05-0.67c-0.74-0.19-1.43-0.46-2.05-0.81
			c-0.62-0.35-1.15-0.81-1.57-1.39s-0.63-1.37-0.63-2.38c0-0.79,0.13-1.52,0.4-2.18s0.65-1.23,1.15-1.71
			c0.5-0.48,1.13-0.86,1.87-1.13c0.74-0.28,1.6-0.41,2.56-0.41c0.89,0,1.64,0.12,2.25,0.36c0.61,0.24,1.19,0.46,1.75,0.65
			c-0.19,0.36-0.37,0.8-0.54,1.33s-0.28,0.94-0.32,1.22h-0.43c-0.19-0.58-0.56-1.09-1.12-1.55s-1.24-0.68-2.05-0.68
			c-0.36,0-0.72,0.06-1.08,0.18c-0.36,0.12-0.68,0.3-0.97,0.54c-0.29,0.24-0.53,0.55-0.72,0.94c-0.19,0.38-0.29,0.84-0.29,1.37
			c0,0.77,0.21,1.36,0.63,1.78c0.42,0.42,0.94,0.75,1.57,0.99s1.31,0.45,2.05,0.63c0.74,0.18,1.43,0.43,2.05,0.76
			s1.15,0.77,1.57,1.35s0.63,1.37,0.63,2.38c0,0.7-0.15,1.38-0.45,2.05c-0.3,0.67-0.73,1.28-1.29,1.82
			c-0.56,0.54-1.24,0.96-2.03,1.26c-0.79,0.3-1.69,0.45-2.7,0.45c-1.1,0-2.03-0.11-2.77-0.32c-0.74-0.22-1.37-0.47-1.87-0.76
			c0.14-0.31,0.29-0.74,0.45-1.28c0.16-0.54,0.23-0.99,0.23-1.35h0.43C152.05,146.83,152.23,147.09,152.48,147.38z"/>
	</g>
	<line fill="none" stroke="#FFFFFF" stroke-width="3" stroke-miterlimit="10" x1="35.15" y1="109.99" x2="179.82" y2="109.99"/>
</g>
</svg>
